<?xml version="1.0" standalone="no"?>
<!DOCTYPE svg PUBLIC "-//W3C//DTD SVG 20010904//EN"
 "http://www.w3.org/TR/2001/REC-SVG-20010904/DTD/svg10.dtd">
<svg version="1.0" xmlns="http://www.w3.org/2000/svg"
 width="100%" height="100%" viewBox="0 0 971 971"
 preserveAspectRatio="xMidYMid meet">

<g transform="translate(0,971) scale(0.1,-0.1)"
fill="#4B555A" stroke="none">
<path d="M3750 9430 c-27 -87 -84 -259 -124 -382 -41 -123 -127 -385 -191
-583 -64 -198 -175 -540 -247 -760 -71 -220 -159 -490 -195 -600 -36 -110 -73
-225 -83 -255 -10 -30 -71 -217 -135 -415 -64 -198 -122 -378 -130 -400 -7
-22 -66 -202 -130 -400 -65 -198 -161 -493 -215 -655 -152 -458 -293 -888
-355 -1085 -31 -99 -68 -217 -83 -262 l-26 -83 -823 0 c-508 0 -823 -4 -823
-9 0 -15 66 -230 90 -295 l21 -56 705 0 c387 0 704 -1 704 -3 0 -1 -23 -70
-50 -152 -28 -83 -100 -305 -161 -495 -98 -308 -273 -842 -285 -875 -6 -15
165 -198 330 -354 200 -188 513 -434 520 -409 2 7 25 74 49 148 68 204 429
1302 573 1748 l128 392 1030 -2 1031 -3 52 -150 c28 -82 126 -368 218 -635 92
-267 210 -609 262 -760 52 -151 124 -358 158 -460 35 -102 102 -295 148 -430
47 -135 113 -328 147 -430 35 -102 65 -187 67 -189 1 -3 51 8 111 22 254 63
538 161 789 272 128 56 131 58 123 84 -9 29 -100 295 -305 891 -75 217 -205
598 -290 845 -85 248 -192 561 -239 698 l-85 247 1689 0 1689 0 21 56 c24 65
90 280 90 295 0 5 -689 10 -1807 11 l-1808 3 -27 80 c-33 98 -232 678 -298
870 -26 77 -92 266 -145 420 -53 154 -123 357 -155 450 -32 94 -104 303 -160
465 -56 162 -128 372 -160 465 -32 94 -97 283 -145 420 -48 138 -91 261 -95
275 -4 14 -40 117 -80 230 -39 113 -114 329 -165 480 -129 382 -184 542 -195
565 -5 11 -53 146 -105 300 -53 154 -114 331 -136 393 -21 61 -57 165 -80 230
-22 64 -58 167 -79 227 -21 61 -42 122 -45 138 -15 57 -34 28 -85 -133z m100
-3285 c87 -247 119 -340 245 -705 75 -217 158 -456 185 -530 27 -74 78 -223
115 -330 36 -107 130 -382 209 -610 l143 -415 -453 -3 c-250 -1 -658 -1 -908
0 l-455 3 74 225 c84 259 324 994 426 1310 361 1109 377 1156 384 1148 2 -2
18 -44 35 -93z"/>
<path d="M7155 7286 c-253 -59 -441 -229 -522 -471 -24 -71 -27 -95 -27 -215
0 -120 3 -144 27 -215 37 -111 90 -197 173 -279 82 -83 168 -136 279 -173 71
-24 95 -27 215 -27 120 0 144 3 215 27 111 37 197 90 279 173 83 82 136 168
173 279 24 71 27 95 27 215 0 120 -3 144 -27 215 -37 111 -90 197 -173 279
-132 133 -278 195 -469 202 -71 2 -131 -1 -170 -10z"/>
</g>
</svg>